PathFileType	4	(X/Y/Z)	Patient4_TMGait_0pt5_01_left_04.trc.trc
DataRate	CameraRate	NumFrames	NumMarkers	Units	OrigDataRate	OrigDataStartFrame	OrigNumFrames
73.684210526316	73.684210526316	7	33	mm	73.684210526316	71	       141
Frame#	Time	L.ASIS			Sacral			L.Shoulder			Chest			R.Shoulder			Neck			R.ASIS			R.Thigh.Superior			R.Thigh.Lateral			R.Thigh.Inferior			R.Patella			L.Thigh.Superior			L.Thigh.Lateral			L.Thigh.Inferior			L.Patella			L.Shank.Superior			L.Shank.Lateral			L.Shank.Inferior			R.Shank.Superior			R.Shank.Lateral			R.Shank.Inferior			R.Heel			R.Midfoot.Superior			R.Midfoot.Lateral			R.Toe			L.Heel			L.Midfoot.Lateral			L.Midfoot.Superior			L.Toe			L.Elbow			L.Wrist			R.Elbow			R.Wrist			
		X1	Y1	Z1	X2	Y2	Z2	X3	Y3	Z3	X4	Y4	Z4	X5	Y5	Z5	X6	Y6	Z6	X7	Y7	Z7	X8	Y8	Z8	X9	Y9	Z9	X10	Y10	Z10	X11	Y11	Z11	X12	Y12	Z12	X13	Y13	Z13	X14	Y14	Z14	X15	Y15	Z15	X16	Y16	Z16	X17	Y17	Z17	X18	Y18	Z18	X19	Y19	Z19	X20	Y20	Z20	X21	Y21	Z21	X22	Y22	Z22	X23	Y23	Z23	X24	Y24	Z24	X25	Y25	Z25	X26	Y26	Z26	X27	Y27	Z27	X28	Y28	Z28	X29	Y29	Z29	X30	Y30	Z30	X31	Y31	Z31	X32	Y32	Z32	X33	Y33	Z33	

71	6.170000000000	718.793015911729	962.669228742786	313.497801308553	497.618856671387	1004.596663502189	461.806873221736	689.882665729092	1437.204948783561	296.792028264614	776.888225923111	1362.593992000311	464.661260343500	680.480321860062	1435.548437253599	634.070391763678	679.669159536109	1495.195803257452	447.728149749979	720.376581169468	941.179296056027	588.616990321772	799.511223728179	776.397346625471	556.760163715279	767.216560542866	655.424549975007	633.192616026466	852.299147582742	618.596247125116	548.023819718848	890.751909974982	532.124634625813	567.340616371305	736.219957787473	738.288139891820	348.161100343301	632.712835732075	636.595900433470	281.909514402151	691.952857589280	548.873854057090	354.620311963440	679.272390426483	482.238725488150	366.817126005834	653.553805191596	413.153573374033	356.480113953182	565.765038066244	300.727159950137	301.429790177427	603.272841157863	191.155946405577	381.650874781140	868.608585144654	443.122660692134	578.118160065400	810.336227347917	334.664560402213	645.069813110076	869.890648060421	243.345501458232	591.789326845861	760.651274753541	64.682268833590	567.280694805168	927.246729369031	126.621619164138	603.453038230948	846.394312159730	54.533945942195	639.023139725461	1050.381451842817	81.543296723975	627.663212012894	465.849902427572	37.276713323624	415.393564380504	544.881598900608	34.817867552678	339.513732582252	626.825374735302	95.501717907581	371.576625522105	756.426965264756	42.491335034335	351.775438888036	669.286826671593	1097.898414424863	145.460969014001	868.325389648719	932.064133133283	170.151091535849	532.732332602676	1117.542235471558	721.314972461872	510.609786957345	858.042682591337	739.202496086511	
72	6.183571428571	719.493045499508	961.825829386126	315.046587311843	497.842070116347	1003.539113854154	462.550356643915	690.274405408156	1436.116793612332	298.384068280571	776.765904202975	1361.601476192887	466.553925849406	679.837221480193	1434.509598146931	635.708382561599	679.549538211284	1494.128675012596	449.249262097211	720.056183683443	939.797008442455	590.241635574330	797.020326548314	772.977020176004	559.385926936993	762.173616005615	652.308513225571	635.558730396077	847.615403266202	614.870137808380	551.010244769057	885.494014613569	530.289279503812	569.523394462368	734.765096246132	736.893663206560	349.307431474541	630.322614711282	636.244245071922	282.352629810381	688.193144048241	547.949880187608	355.189734225988	674.803617749438	481.443169506879	367.147668091419	648.679179053431	412.561059277958	356.731249425475	560.287579041774	300.657021972898	301.523242294985	597.068715748378	190.836211989715	381.792434507709	866.556807352098	441.649346970928	580.285780115146	812.423519477459	330.650340744006	646.904162808952	875.958347632520	241.754182600512	593.441382097757	774.052872972224	58.404770493641	567.893754384237	938.192086700134	126.691579780687	605.023826889808	859.957492524146	51.225035196378	639.940118260514	1063.113007709345	86.157633581041	629.497953590348	459.043466363830	37.388455635599	415.410946446290	538.025007335561	34.875065614957	339.527589490576	619.959789252258	95.452757300591	371.650429271810	749.469841748559	42.592208004159	351.834454718659	670.926727596861	1096.285591840606	147.999246815625	871.061207451963	932.134780361888	174.298052004635	531.707135590269	1116.260698321439	721.140637544214	509.178510816874	856.578689049194	737.311198526280	
73	6.197142857143	720.473473894311	960.916683659860	316.657049807528	498.371632471849	1002.317803465147	463.461614739956	690.613278204699	1435.058655392948	300.196813861373	776.696922362587	1360.607442365581	468.605322670529	679.197761316800	1433.296455658343	637.508898053119	679.369001611264	1493.007585120073	451.036131457293	720.070204795131	938.357944634066	591.921494779716	795.173166664632	769.690368996809	562.078705888042	757.614397604978	649.176405277379	637.678015340840	843.635854822161	611.318995230601	553.952208458361	880.588846502225	528.120078802719	571.585738484270	733.636433040896	735.430413635480	350.505660058321	628.241835663446	635.797635761863	282.962596330386	684.826780556741	546.954848728231	355.871379462229	670.699633296460	480.512827412600	367.651651364619	644.135336975207	411.847078266562	357.131337685295	555.011723832781	300.572309323237	301.722973707414	590.949803054133	190.446910336342	381.994020439491	864.087176412836	439.742573892805	582.249358533324	812.815576849272	326.946116816752	648.270416364705	879.386185314147	239.992558571800	594.764342006844	783.057933876112	53.541961665066	567.990892367251	945.170004464867	126.236883577521	606.327610450545	868.773448961458	48.499680598125	640.474773354613	1071.160577828520	88.959247622175	631.230162935905	452.239673479588	37.469494833608	415.441249024463	531.163644527024	34.938045496384	339.550517879641	613.077086291724	95.411384307209	371.740814837356	742.493194527920	42.681401065264	351.888444326913	672.312985277053	1094.669393196389	150.848865792247	873.452445666841	932.076440088358	178.566945487312	531.607361179625	1114.482811833053	721.546072584968	509.656835411162	854.548335824578	736.001416189877	
74	6.210714285714	721.735803424649	959.939160462204	318.340858857591	499.208394520148	1000.942798236255	464.545738665050	690.903197606795	1434.039407758950	302.234632007314	776.685032944822	1359.627867707882	470.827235283968	678.545752421823	1431.917042881403	639.477732694168	679.118722187606	1491.841802462842	453.098023240955	720.441809034913	936.882901440090	593.658937818768	794.095923472297	766.625675425488	564.788999383828	753.714394298397	646.100114986378	639.468100121705	840.522148540518	608.034474488984	556.761317848080	876.216380145291	525.672898426201	573.447247846664	732.857331240478	733.890893564573	351.771611135651	626.490209310439	635.239174905574	283.768002608826	681.888872332814	545.868019236844	356.697105480130	667.003923273306	479.411447073990	368.370767506074	639.952990950432	410.979847026659	357.716263325986	549.949109461942	300.460013841898	302.055192597949	584.908668445286	189.967522026703	382.273213196936	861.348778432118	437.400822681371	583.938131171978	811.620796201832	323.498092034400	649.155276814905	880.243048622693	237.915502401947	595.712294331759	787.559954717264	49.889329924600	567.621097446529	948.225319730762	125.065090492750	607.318880190584	872.812277681126	46.186185438480	640.670197449456	1074.642809061969	89.689444550739	632.805542508641	445.427843812549	37.484907493435	415.485447985349	524.293867372650	34.987300917795	339.587917529313	606.168077629793	95.376156053227	371.853454467877	735.505270533452	42.756834636675	351.933274274161	673.425886413216	1093.074275387374	153.969903475873	875.478382570437	931.898068077472	182.910843382766	532.318457328687	1112.247893038189	722.513469087046	511.952245048876	852.004289615329	735.355247404427	
75	6.224285714286	723.262567848987	958.896994688963	320.106072832473	500.336384091542	999.434054536061	465.802662437733	691.151749527135	1433.066561395687	304.499291617575	776.736572128961	1358.676281525707	473.227911416404	677.880490152863	1430.387374823607	641.624005609280	678.803376136883	1490.643893562703	455.438451863522	721.183245880453	935.396448718559	595.453309912410	793.860668740030	763.834805898248	567.460782244980	750.599794627447	643.143377392256	640.878187510898	838.361043542950	605.070784682447	559.354718465557	872.503194665888	523.007401033390	575.035593424963	732.448805292636	732.276302989529	353.114171067658	625.092628807884	634.552010756007	284.795070266599	679.427809011602	544.671540716273	357.697020070752	663.785156394893	478.102388688992	369.336357515595	636.172394550722	409.929055702420	358.517398558133	545.119854752177	300.311411153066	302.543528017172	578.945168915834	189.381080123225	382.643432446471	858.494077575622	434.660393088461	585.299273104957	809.068755081520	320.263309175476	649.590444786714	878.770177293019	235.445092567261	596.265181249260	787.776703934738	47.227691477158	566.876353723691	947.658478739124	123.099326065794	607.963687053521	872.381190484883	44.156215142220	640.591611357478	1073.961918697842	88.316330950198	634.155468596180	438.595563281969	37.407351726387	415.542880113774	517.414034964641	35.001964721937	339.644758317767	599.231003760008	95.343420166167	371.990927584034	728.521483463496	42.812854464349	351.963589817000	674.255360190132	1091.523113707536	157.319089854322	877.122129945543	931.601690109826	187.281928391651	533.726881976139	1109.608257747736	724.003669174369	515.936957978676	849.020712265017	735.430729986769	
76	6.237857142857	725.016487545619	957.803589993366	321.956116330707	501.723589059469	997.822896695946	467.227333965892	691.369229984643	1432.150717378287	306.988710440983	776.859107472746	1357.766323824600	475.809652764984	677.217178271545	1428.734249749191	643.957966204980	678.441170384066	1489.433478409547	458.054279982598	722.292328786937	933.931040737072	597.301388872325	794.476252256599	761.339695173357	570.034780060757	748.346006697418	640.367332927038	641.897721668503	837.159743557157	602.451246710648	561.659641517586	869.518581384410	520.193727370683	576.295744016758	732.429627753537	730.601043004373	354.537279450211	624.082629496570	633.722315191533	286.066986605995	677.509364256661	543.354340029039	358.898450251871	661.141054296965	476.553745530366	370.565095508491	632.847174339420	408.670780609339	359.557959166828	540.556931685462	300.127416856546	303.207132387764	573.072223278545	188.679703598962	383.111243533281	855.671588729745	431.601273232545	586.304679634448	805.489642788397	317.222029309020	649.648080793191	875.360236142411	232.584609473228	596.431909499515	784.226984091984	45.345834442408	565.878629479839	943.995687761702	120.389432095104	608.244565067984	868.093129923744	42.334642400632	640.316845946949	1069.766713770929	85.042486715796	635.208299982739	431.731845046354	37.228859102022	415.610510432542	510.526248437241	34.965514603409	339.724481835066	592.276383486854	95.307930578993	372.150801195510	721.564347421718	42.839241559657	351.973301869069	674.801771055362	1090.040332773199	160.853518953997	878.369836947625	931.183842781928	191.634329150452	535.733129927269	1106.627931641203	725.963153972111	521.460185277826	845.690626962007	736.256153523268	
77	6.251428571429	726.942096332506	956.684438902016	323.889731870474	503.324559732341	996.152226970328	468.811071194237	691.566868458838	1431.309391029533	309.695522960315	777.059335473717	1356.914532946018	478.566759047132	676.583999251508	1426.997045405660	646.487532676394	678.061331728994	1488.239828269397	460.934857716089	723.750251064295	932.529368674542	599.198577347886	795.887348384184	759.143170451340	572.453258576519	746.980436873080	637.834408367344	642.558622378751	836.851047954229	600.178005298005	563.618108512320	867.276771349247	517.316661998013	577.198092227375	732.816255242945	728.895992669087	356.042719264435	623.505195174184	632.742421233385	287.602673178349	676.219224304440	541.915882772656	360.323919852075	659.198640146290	474.744085486857	372.055053715298	630.047674005856	407.192386534708	360.848957951660	536.310189867241	299.923814596804	304.058494390948	567.321226563553	187.870331266474	383.673860736265	853.016493455533	428.344097107178	586.954896678765	801.275764456532	314.383155720679	649.430779887145	870.511606606829	229.416325296573	596.250328815453	777.661948365559	44.056162546475	564.762664620371	937.924293822074	117.100093893157	608.166503422006	860.788264469358	40.696464861790	639.926882628448	1062.877655059842	80.273209762426	635.906443298745	424.831478151945	36.973774368941	415.682322179822	503.638120863325	34.873262186653	339.827816340717	585.331245585944	95.264252040006	372.324085698486	714.661774504999	42.820983749079	351.956435274795	675.075517813968	1088.654813748200	164.533542432237	879.209763881608	930.638159541793	195.926890760341	538.261411317679	1103.380939859376	728.331294790880	528.362143841550	842.122487634778	737.828828314268	
